<?xml version="1.0" standalone="no"?><!DOCTYPE svg PUBLIC "-//W3C//DTD SVG 1.1//EN" "http://www.w3.org/Graphics/SVG/1.1/DTD/svg11.dtd"><svg t="1780285609860" class="icon" viewBox="0 0 1024 1024" version="1.1" xmlns="http://www.w3.org/2000/svg" p-id="12961" xmlns:xlink="http://www.w3.org/1999/xlink"><path d="M894.4 281.504a39.36 39.36 0 0 0-27.104-11.808l-293.888-10.976-22.016 46.88 30.592 87.2-55.2 99.008 22.4 79.904 56 68.48 81.024-70.496c7.808-6.88 20.288-6.496 27.104 1.216l103.904 106.4c7.296 7.296 6.88 19.2-0.928 26.112a18.944 18.944 0 0 1-13.76 4.896l-284.8-10.624-14.24 38.72 15.52 34.592 327.488 11.808c21.504 0.8 39.616-15.104 40.096-35.52l18.208-439.296a34.368 34.368 0 0 0-10.4-26.496zM684.096 483.2c-32.32-1.184-57.28-26.88-56-57.088 1.28-30.592 28.416-54.208 60.288-52.992 31.904 1.184 57.312 26.88 56 57.088-1.184 30.208-28.384 54.304-60.288 52.992z m-211.104 253.6l9.92-40.8-231.424 15.104c-10.784 0.8-19.776-6.496-20.672-16.704a17.856 17.856 0 0 1 4.672-13.504l171.52-186.272a18.048 18.048 0 0 1 14.208-6.112c5.184 0 10.272 1.984 14.176 5.696l57.28 56.704-24.576-60.32 44-104.288L472 302.72l16.384-48.096-315.392 20.8c-21.504 1.184-37.504 18.784-36.192 39.072l31.904 439.424c0.384 9.792 5.184 18.688 13.408 24.896 7.776 6.496 17.696 9.792 28 8.992l281.792-18.304-18.88-32.704z" p-id="12962"></path></svg>